<mxfile host="app.diagrams.net" modified="2023-08-25T16:55:40.533Z" agent="Mozilla/5.0 (X11; Linux x86_64; rv:109.0) Gecko/20100101 Firefox/111.0" etag="Xw1QcagwpweQSRtvUzC5" version="21.6.9" type="github">
  <diagram id="R2lEEEUBdFMjLlhIrx00" name="Page-1">
    <mxGraphModel dx="1434" dy="678" grid="1" gridSize="10" guides="1" tooltips="1" connect="1" arrows="1" fold="1" page="1" pageScale="1" pageWidth="850" pageHeight="1100" math="0" shadow="0" extFonts="Permanent Marker^https://fonts.googleapis.com/css?family=Permanent+Marker">
      <root>
        <mxCell id="0" />
        <mxCell id="1" parent="0" />
        <mxCell id="1Ol-WQj2aDRz6ATiaxp9-3" value="" style="edgeStyle=orthogonalEdgeStyle;rounded=0;orthogonalLoop=1;jettySize=auto;html=1;" edge="1" parent="1" source="1Ol-WQj2aDRz6ATiaxp9-1" target="1Ol-WQj2aDRz6ATiaxp9-2">
          <mxGeometry relative="1" as="geometry" />
        </mxCell>
        <mxCell id="1Ol-WQj2aDRz6ATiaxp9-1" value="&lt;div&gt;VENDEDOR&lt;/div&gt;&lt;div&gt;-----------------------------&lt;/div&gt;&lt;div&gt;código&lt;/div&gt;&lt;div&gt;nome&lt;/div&gt;&lt;div&gt;endereço&lt;/div&gt;&lt;div&gt;comissão&lt;br&gt;&lt;/div&gt;" style="rounded=1;whiteSpace=wrap;html=1;" vertex="1" parent="1">
          <mxGeometry x="40" y="80" width="130" height="120" as="geometry" />
        </mxCell>
        <mxCell id="1Ol-WQj2aDRz6ATiaxp9-5" value="" style="edgeStyle=orthogonalEdgeStyle;rounded=0;orthogonalLoop=1;jettySize=auto;html=1;" edge="1" parent="1" source="1Ol-WQj2aDRz6ATiaxp9-2" target="1Ol-WQj2aDRz6ATiaxp9-4">
          <mxGeometry relative="1" as="geometry">
            <Array as="points">
              <mxPoint x="410" y="140" />
              <mxPoint x="410" y="140" />
            </Array>
          </mxGeometry>
        </mxCell>
        <mxCell id="1Ol-WQj2aDRz6ATiaxp9-7" value="" style="edgeStyle=orthogonalEdgeStyle;rounded=0;orthogonalLoop=1;jettySize=auto;html=1;" edge="1" parent="1" source="1Ol-WQj2aDRz6ATiaxp9-2" target="1Ol-WQj2aDRz6ATiaxp9-6">
          <mxGeometry relative="1" as="geometry">
            <Array as="points">
              <mxPoint x="315" y="250" />
              <mxPoint x="315" y="250" />
            </Array>
          </mxGeometry>
        </mxCell>
        <mxCell id="1Ol-WQj2aDRz6ATiaxp9-2" value="ATENDE" style="rhombus;whiteSpace=wrap;html=1;rounded=1;" vertex="1" parent="1">
          <mxGeometry x="275" y="100" width="80" height="80" as="geometry" />
        </mxCell>
        <mxCell id="1Ol-WQj2aDRz6ATiaxp9-18" value="" style="edgeStyle=orthogonalEdgeStyle;rounded=0;orthogonalLoop=1;jettySize=auto;html=1;" edge="1" parent="1" source="1Ol-WQj2aDRz6ATiaxp9-4" target="1Ol-WQj2aDRz6ATiaxp9-17">
          <mxGeometry relative="1" as="geometry" />
        </mxCell>
        <mxCell id="1Ol-WQj2aDRz6ATiaxp9-4" value="&lt;div&gt;CLIENTE&lt;/div&gt;&lt;div&gt;-----------------------------&lt;/div&gt;&lt;div&gt;código&lt;/div&gt;&lt;div&gt;nome&lt;/div&gt;&lt;div&gt;endereço&lt;/div&gt;&lt;div&gt;faturamento&lt;/div&gt;&lt;div&gt;limite de crédito&lt;/div&gt;&lt;div&gt;&lt;br&gt;&lt;/div&gt;" style="whiteSpace=wrap;html=1;rounded=1;" vertex="1" parent="1">
          <mxGeometry x="430" y="80" width="130" height="150" as="geometry" />
        </mxCell>
        <mxCell id="1Ol-WQj2aDRz6ATiaxp9-9" value="" style="edgeStyle=orthogonalEdgeStyle;rounded=0;orthogonalLoop=1;jettySize=auto;html=1;" edge="1" parent="1" source="1Ol-WQj2aDRz6ATiaxp9-6" target="1Ol-WQj2aDRz6ATiaxp9-8">
          <mxGeometry relative="1" as="geometry" />
        </mxCell>
        <mxCell id="1Ol-WQj2aDRz6ATiaxp9-6" value="&lt;div&gt;PEÇAS&lt;/div&gt;&lt;div&gt;-----------------------------&lt;/div&gt;&lt;div&gt;código&lt;/div&gt;&lt;div&gt;descrição&lt;/div&gt;&lt;div&gt;preço&lt;/div&gt;&lt;div&gt;estoque&lt;/div&gt;&lt;div&gt;n° do armazém&lt;br&gt;&lt;/div&gt;" style="whiteSpace=wrap;html=1;rounded=1;" vertex="1" parent="1">
          <mxGeometry x="252.5" y="270" width="125" height="130" as="geometry" />
        </mxCell>
        <mxCell id="1Ol-WQj2aDRz6ATiaxp9-11" value="" style="edgeStyle=orthogonalEdgeStyle;rounded=0;orthogonalLoop=1;jettySize=auto;html=1;" edge="1" parent="1" source="1Ol-WQj2aDRz6ATiaxp9-8" target="1Ol-WQj2aDRz6ATiaxp9-10">
          <mxGeometry relative="1" as="geometry" />
        </mxCell>
        <mxCell id="1Ol-WQj2aDRz6ATiaxp9-8" value="ALOCADA" style="rhombus;whiteSpace=wrap;html=1;rounded=1;" vertex="1" parent="1">
          <mxGeometry x="490" y="390" width="80" height="80" as="geometry" />
        </mxCell>
        <mxCell id="1Ol-WQj2aDRz6ATiaxp9-10" value="&lt;div&gt;ARMAZÉM&lt;/div&gt;&lt;div&gt;-----------------------------&lt;/div&gt;&lt;div&gt;código &lt;br&gt;&lt;/div&gt;&lt;div&gt;endereço&lt;br&gt;&lt;/div&gt;" style="whiteSpace=wrap;html=1;rounded=1;" vertex="1" parent="1">
          <mxGeometry x="620" y="305" width="130" height="85" as="geometry" />
        </mxCell>
        <mxCell id="1Ol-WQj2aDRz6ATiaxp9-12" value="1" style="text;html=1;strokeColor=none;fillColor=none;align=center;verticalAlign=middle;whiteSpace=wrap;rounded=0;" vertex="1" parent="1">
          <mxGeometry x="192.5" y="110" width="60" height="30" as="geometry" />
        </mxCell>
        <mxCell id="1Ol-WQj2aDRz6ATiaxp9-13" value="n" style="text;html=1;strokeColor=none;fillColor=none;align=center;verticalAlign=middle;whiteSpace=wrap;rounded=0;" vertex="1" parent="1">
          <mxGeometry x="355" y="110" width="60" height="30" as="geometry" />
        </mxCell>
        <mxCell id="1Ol-WQj2aDRz6ATiaxp9-20" style="edgeStyle=orthogonalEdgeStyle;rounded=0;orthogonalLoop=1;jettySize=auto;html=1;" edge="1" parent="1" source="1Ol-WQj2aDRz6ATiaxp9-17">
          <mxGeometry relative="1" as="geometry">
            <mxPoint x="380" y="300" as="targetPoint" />
          </mxGeometry>
        </mxCell>
        <mxCell id="1Ol-WQj2aDRz6ATiaxp9-17" value="COMPRA" style="rhombus;whiteSpace=wrap;html=1;rounded=1;" vertex="1" parent="1">
          <mxGeometry x="455" y="260" width="80" height="80" as="geometry" />
        </mxCell>
        <mxCell id="1Ol-WQj2aDRz6ATiaxp9-21" value="1" style="text;html=1;strokeColor=none;fillColor=none;align=center;verticalAlign=middle;whiteSpace=wrap;rounded=0;" vertex="1" parent="1">
          <mxGeometry x="430" y="240" width="60" height="30" as="geometry" />
        </mxCell>
        <mxCell id="1Ol-WQj2aDRz6ATiaxp9-22" value="n" style="text;html=1;strokeColor=none;fillColor=none;align=center;verticalAlign=middle;whiteSpace=wrap;rounded=0;" vertex="1" parent="1">
          <mxGeometry x="395" y="270" width="60" height="30" as="geometry" />
        </mxCell>
        <mxCell id="1Ol-WQj2aDRz6ATiaxp9-25" value="n" style="text;html=1;strokeColor=none;fillColor=none;align=center;verticalAlign=middle;whiteSpace=wrap;rounded=0;" vertex="1" parent="1">
          <mxGeometry x="440" y="370" width="60" height="30" as="geometry" />
        </mxCell>
        <mxCell id="1Ol-WQj2aDRz6ATiaxp9-26" value="1" style="text;html=1;strokeColor=none;fillColor=none;align=center;verticalAlign=middle;whiteSpace=wrap;rounded=0;" vertex="1" parent="1">
          <mxGeometry x="535" y="370" width="60" height="30" as="geometry" />
        </mxCell>
      </root>
    </mxGraphModel>
  </diagram>
</mxfile>
